<svg width="36" height="36" viewBox="0 0 36 36" fill="none" xmlns="http://www.w3.org/2000/svg">
<path d="M12.001 18C12.001 14.6864 14.6864 11.9995 18 11.9995C21.3136 11.9995 24.0005 14.6864 24.0005 18C24.0005 21.3136 21.3136 24.0005 18 24.0005C14.6864 24.0005 12.001 21.3136 12.001 18ZM8.75719 18C8.75719 23.1048 12.8952 27.2428 18 27.2428C23.1049 27.2428 27.2428 23.1048 27.2428 18C27.2428 12.8952 23.1049 8.75719 18 8.75719C12.8952 8.75719 8.75719 12.8952 8.75719 18ZM25.4486 8.39079C25.4486 9.58304 26.4155 10.5514 27.6092 10.5514C28.8015 10.5514 29.7698 9.58304 29.7698 8.39079C29.7698 7.19855 28.8029 6.23166 27.6092 6.23166C26.4155 6.23166 25.4486 7.19855 25.4486 8.39079ZM10.7273 32.6515C8.97238 32.5716 8.01858 32.2793 7.38465 32.0322C6.54427 31.705 5.94524 31.3153 5.31422 30.6858C4.68465 30.0562 4.29354 29.4572 3.96785 28.6168C3.72068 27.9829 3.42843 27.0291 3.34847 25.2742C3.26123 23.3767 3.24378 22.8068 3.24378 18C3.24378 13.1932 3.26268 12.6247 3.34847 10.7258C3.42843 8.97092 3.72213 8.01858 3.96785 7.3832C4.29499 6.54281 4.68465 5.94378 5.31422 5.31276C5.94378 4.6832 6.54281 4.29208 7.38465 3.9664C8.01858 3.71922 8.97238 3.42698 10.7273 3.34701C12.6247 3.25977 13.1947 3.24233 18 3.24233C22.8068 3.24233 23.3753 3.26123 25.2742 3.34701C27.0291 3.42698 27.9814 3.72068 28.6168 3.9664C29.4572 4.29208 30.0562 4.6832 30.6872 5.31276C31.3168 5.94233 31.7065 6.54281 32.0336 7.3832C32.2808 8.01712 32.573 8.97092 32.653 10.7258C32.7402 12.6247 32.7577 13.1932 32.7577 18C32.7577 22.8053 32.7402 23.3753 32.653 25.2742C32.573 27.0291 32.2793 27.9829 32.0336 28.6168C31.7065 29.4572 31.3168 30.0562 30.6872 30.6858C30.0577 31.3153 29.4572 31.705 28.6168 32.0322C27.9829 32.2793 27.0291 32.5716 25.2742 32.6515C23.3767 32.7388 22.8068 32.7562 18 32.7562C13.1947 32.7562 12.6247 32.7388 10.7273 32.6515ZM10.579 0.109047C8.66268 0.196284 7.35412 0.500162 6.20986 0.945073C5.02633 1.40452 4.0231 2.021 3.02133 3.02132C2.021 4.02165 1.40452 5.02488 0.945073 6.20985C0.500162 7.35412 0.196284 8.66268 0.109047 10.579C0.0203554 12.4982 0 13.1118 0 18C0 22.8882 0.0203554 23.5018 0.109047 25.421C0.196284 27.3373 0.500162 28.6459 0.945073 29.7901C1.40452 30.9737 2.01955 31.9784 3.02133 32.9787C4.02165 33.979 5.02488 34.594 6.20986 35.0549C7.35558 35.4998 8.66268 35.8037 10.579 35.891C12.4997 35.9782 13.1118 36 18 36C22.8897 36 23.5018 35.9796 25.421 35.891C27.3373 35.8037 28.6459 35.4998 29.7901 35.0549C30.9737 34.594 31.9769 33.979 32.9787 32.9787C33.979 31.9784 34.594 30.9737 35.0549 29.7901C35.4998 28.6459 35.8052 27.3373 35.891 25.421C35.9782 23.5003 35.9986 22.8882 35.9986 18C35.9986 13.1118 35.9782 12.4982 35.891 10.579C35.8037 8.66268 35.4998 7.35412 35.0549 6.20985C34.594 5.02633 33.979 4.0231 32.9787 3.02132C31.9784 2.021 30.9737 1.40452 29.7916 0.945073C28.6459 0.500162 27.3373 0.19483 25.4225 0.109047C23.5032 0.0218094 22.8897 0 18.0015 0C13.1118 0 12.4997 0.0203554 10.579 0.109047Z" fill="#3683FC"/>
</svg>
