<svg width="26" height="25" viewBox="0 0 26 25" fill="none" xmlns="http://www.w3.org/2000/svg">
<path d="M5.93994 24.0786V7.93613H0.552883V24.0786H5.94051H5.93994ZM3.24754 5.73253C5.12573 5.73253 6.29502 4.49298 6.29502 2.94389C6.25987 1.3595 5.12573 0.154541 3.28326 0.154541C1.43952 0.154541 0.235352 1.3595 0.235352 2.94375C0.235352 4.49284 1.40423 5.73239 3.21224 5.73239H3.24712L3.24754 5.73253ZM8.92176 24.0786H14.3084V15.0649C14.3084 14.5831 14.3436 14.1 14.4859 13.7559C14.8751 12.7915 15.7615 11.7933 17.25 11.7933C19.1988 11.7933 19.9788 13.2735 19.9788 15.4438V24.0786H25.3653V14.823C25.3653 9.86494 22.7081 7.55768 19.1639 7.55768C16.2582 7.55768 14.982 9.17527 14.273 10.277H14.3088V7.93669H8.92204C8.99235 9.45105 8.92162 24.0792 8.92162 24.0792L8.92176 24.0786Z" fill="white"/>
</svg>
