<svg width="180" height="89" viewBox="0 0 180 89" fill="none" xmlns="http://www.w3.org/2000/svg">
<path fill-rule="evenodd" clip-rule="evenodd" d="M38.4808 39.6059C38.9828 38.6414 39.3943 38.1846 39.7818 37.8773C40.0216 37.6872 40.2733 37.5337 40.6006 37.3598C39.5108 38.8892 38.8269 41.0932 38.8269 43.5434C38.8269 44.2194 38.879 44.8766 38.9772 45.506C38.9646 46.0082 38.8916 51.7711 38.8816 52.4917C38.8766 53.1788 38.8728 53.776 38.8703 54.2014L38.8665 54.8814L38.8661 54.9597L39.1752 60.1279L39.2009 60.1264C39.1988 60.1567 39.1977 60.1874 39.1977 60.2185C39.1977 60.7636 39.5284 61.1984 39.9424 61.475C40.3596 61.7538 40.9083 61.9105 41.4902 61.9105C42.0721 61.9105 42.6207 61.7538 43.038 61.475C43.452 61.1984 43.7826 60.7636 43.7826 60.2185C43.7826 60.0919 43.7648 59.9713 43.7322 59.8572L44.003 59.8411L43.7032 54.8295L43.723 51.8657C43.8975 51.8918 44.2341 51.9121 44.4131 51.9121C44.5128 51.9121 44.7785 51.8759 45.0332 51.8194L45.1065 54.8679L44.8938 59.8839L45.0124 59.8889C44.9853 59.9935 44.9706 60.1036 44.9706 60.2185C44.9706 60.7636 45.3013 61.1984 45.7153 61.475C46.1325 61.7538 46.6811 61.9105 47.2631 61.9105C47.845 61.9105 48.3936 61.7538 48.8109 61.475C49.2248 61.1984 49.5555 60.7636 49.5555 60.2185C49.5555 60.171 49.553 60.1243 49.5482 60.0786L49.7258 60.086L49.9452 54.9132C49.9452 54.9132 49.9037 53.1327 49.8867 52.4459C49.8867 52.4459 49.7172 46.5106 49.6959 46.0087C49.68 45.6368 49.6588 45.1362 49.6149 44.8421C49.6577 44.4189 49.6799 43.9852 49.6799 43.5434C49.6799 41.2243 49.0672 39.1257 48.0776 37.611C47.9525 37.4196 47.8215 37.2375 47.6848 37.0654C47.667 37.043 47.6491 37.0207 47.6311 36.9987C47.6685 37.0196 47.7048 37.0399 47.7402 37.0598L47.7413 37.0604C48.2773 37.3615 48.5945 37.5513 48.8936 37.8194C49.224 38.1156 49.5932 38.5737 50.0496 39.568C50.1312 39.7457 50.1776 39.9097 50.1957 40.0563C50.3008 40.9112 50.217 41.9538 50.0657 43.9664C50.2423 43.9664 50.2883 43.8957 50.5505 43.9294C50.52 44.0359 50.5036 44.1484 50.5036 44.2648C50.5036 44.9323 51.0421 45.4734 51.7063 45.4734C52.3705 45.4734 52.909 44.9323 52.909 44.2648C52.909 44.2109 52.9055 44.1579 52.8987 44.1059C53.0686 44.143 53.2453 44.3195 53.4219 44.3195C53.5689 42.3656 53.7089 40.8867 53.5559 39.6432C53.3709 38.1395 52.0088 36.0663 51.154 35.3C50.5124 34.7249 49.7992 34.3296 49.1683 33.9798C49.086 33.9343 49.0052 33.8894 48.9261 33.8451L48.8061 34.059L44.5897 34.6081C44.3379 34.6336 44.1344 34.6392 43.8831 34.6081L40.2754 34.0965L40.1309 33.8066C39.4248 34.1547 38.3775 34.6714 37.6781 35.2259C37.2929 35.5312 34.8743 37.6098 34.8744 40.9647C34.8744 41.9851 34.8382 42.601 35.051 44.2648C35.2276 44.3195 35.3787 44.1401 35.6029 44.1179C35.5971 44.1661 35.5942 44.2151 35.5942 44.2648C35.5942 44.9323 36.1326 45.4734 36.7968 45.4734C37.4611 45.4734 37.9995 44.9323 37.9995 44.2648C37.9995 44.1448 37.9821 44.0289 37.9497 43.9195C38.1083 43.8765 38.2305 43.9664 38.4072 43.9664C38.2394 41.9827 38.0539 40.2584 38.4808 39.6059Z" fill="#3683FC"/>
<path d="M48.3406 30.2448C48.3406 32.5143 46.5099 34.3541 44.2515 34.3541C41.9932 34.3541 40.1624 32.5143 40.1624 30.2448C40.1624 27.9753 41.9932 26.1355 44.2515 26.1355C46.5099 26.1355 48.3406 27.9753 48.3406 30.2448Z" fill="#3683FC"/>
<path d="M137.922 29.7855C139.111 29.2908 140.384 29.0361 141.671 29.0361C142.957 29.0361 144.23 29.2908 145.419 29.7855C146.607 30.2803 147.686 31.0052 148.594 31.9188C149.503 32.8318 150.224 33.9155 150.716 35.108C151.207 36.3005 151.46 37.5786 151.46 38.8692C151.46 40.1597 151.207 41.4378 150.716 42.6304C150.224 43.8229 149.503 44.9067 148.594 45.8197L134.419 60.0653C134.237 60.2477 133.99 60.3503 133.733 60.3503C133.475 60.3503 133.229 60.2477 133.047 60.0653L118.871 45.8197C117.036 43.9754 116.006 41.4752 116.006 38.8692C116.006 36.2632 117.036 33.7629 118.871 31.9186C120.707 30.0741 123.197 29.037 125.795 29.037C128.393 29.037 130.883 30.0741 132.719 31.9186L133.733 32.9376L134.747 31.9188C135.655 31.0053 136.734 30.2802 137.922 29.7855Z" fill="#3683FC"/>
<path fill-rule="evenodd" clip-rule="evenodd" d="M115.861 4.77521C122.671 1.32222 130.261 -0.306666 137.889 0.0475706C145.516 0.401807 152.922 2.72706 159.382 6.79632C165.843 10.8656 171.137 16.5398 174.749 23.265C178.36 29.9902 180.165 37.5366 179.988 45.1674C179.811 52.7983 177.657 60.2528 173.737 66.8032C169.817 73.3536 164.265 78.7761 157.623 82.5413C150.981 86.3065 143.475 88.2857 135.839 88.2857V85.4606C142.986 85.4606 150.012 83.608 156.229 80.0838C162.446 76.5596 167.643 71.4841 171.312 65.353C174.981 59.2217 176.997 52.2443 177.163 45.1019C177.329 37.9594 175.639 30.896 172.258 24.6012C168.878 18.3064 163.922 12.9953 157.876 9.1865C151.829 5.37767 144.897 3.20123 137.757 2.86967C130.618 2.5381 123.514 4.06274 117.14 7.29474C110.766 10.5267 105.339 15.3556 101.389 21.31L99.0338 19.7488C103.254 13.3873 109.052 8.2282 115.861 4.77521ZM135.355 4.94699C142.325 4.86097 149.192 6.63351 155.248 10.0821C161.305 13.5306 166.333 18.5306 169.814 24.5671C173.295 30.6036 175.103 37.4584 175.053 44.4258C175.003 51.3932 173.095 58.2212 169.528 64.2068C165.96 70.1925 160.86 75.1193 154.754 78.4802C148.649 81.841 141.757 83.5142 134.789 83.3276C127.821 83.141 121.029 81.1014 115.112 77.4186C109.17 73.7204 101.499 66.4778 95.5216 53.7482C94.2425 51.0243 93.1463 48.0832 92.0063 45.0246C91.3227 43.1906 90.6234 41.3144 89.8594 39.4173C87.7884 34.2745 85.1423 28.6847 80.8074 22.5316L83.1182 20.905C87.6154 27.2885 90.357 33.0875 92.4813 38.3624C93.3117 40.4245 94.0336 42.3648 94.7226 44.2163C95.8232 47.1745 96.8397 49.9063 98.0801 52.5478C103.832 64.7976 111.14 71.6184 116.606 75.0204C122.096 78.4377 128.399 80.3304 134.865 80.5035C141.33 80.6766 147.725 79.124 153.391 76.0054C159.057 72.8868 163.789 68.315 167.1 62.7608C170.41 57.2065 172.18 50.8706 172.227 44.4054C172.273 37.9402 170.595 31.5794 167.365 25.978C164.135 20.3765 159.47 15.7369 153.85 12.5369C148.229 9.33688 141.857 7.6921 135.39 7.77191C128.922 7.85173 122.593 9.65327 117.053 12.991L115.594 10.5715C121.564 6.97446 128.385 5.033 135.355 4.94699ZM131.666 10.1229C136.28 9.5786 140.956 9.98255 145.408 11.31C149.86 12.6374 153.993 14.8603 157.554 17.8422C161.116 20.8241 164.03 24.5021 166.118 28.6504C168.206 32.7987 169.423 37.3298 169.696 41.9655C169.969 46.6013 169.291 51.2438 167.704 55.6081C166.117 59.9725 163.654 63.9666 160.467 67.3452C157.28 70.7238 153.436 73.4157 149.17 75.2556C144.931 77.0841 140.318 78.1745 135.623 78.044C127.952 77.8308 120.747 75.7218 114.324 70.5002C107.926 65.298 102.418 57.0978 97.947 44.9016L100.601 43.9296C104.962 55.8275 110.229 63.5293 116.108 68.3085C121.962 73.0685 128.535 75.0207 135.702 75.22C139.909 75.3369 144.112 74.3603 148.05 72.6617C151.962 70.9743 155.488 68.5056 158.411 65.407C161.333 62.3085 163.592 58.6455 165.047 54.643C166.503 50.6405 167.125 46.3828 166.875 42.1314C166.624 37.88 165.508 33.7245 163.593 29.9201C161.678 26.1157 159.006 22.7426 155.74 20.0079C152.473 17.2732 148.683 15.2346 144.6 14.0172C140.517 12.7999 136.229 12.4294 131.998 12.9286L131.666 10.1229Z" fill="#3683FC"/>
<path fill-rule="evenodd" clip-rule="evenodd" d="M64.1388 83.5104C57.3288 86.9634 49.7394 88.5923 42.1116 88.2381C34.4838 87.8838 27.0783 85.5586 20.6179 81.4893C14.1576 77.4201 8.86317 71.7459 5.25163 65.0206C1.64008 58.2954 -0.16519 50.749 0.0120457 43.1182C0.189282 35.4874 2.34299 28.0329 6.26288 21.4824C10.1828 14.932 15.7349 9.50953 22.3772 5.74434C29.0195 1.97916 36.5251 -3.99665e-05 44.1611 -4.06338e-05L44.1611 2.8251C37.0138 2.8251 29.9886 4.67763 23.7714 8.20185C17.5542 11.7261 12.3574 16.8015 8.68836 22.9327C5.01935 29.0639 3.00349 36.0413 2.83759 43.1838C2.6717 50.3262 4.36143 57.3897 7.74183 63.6845C11.1222 69.9793 16.0778 75.2903 22.1247 79.0992C28.1716 82.908 35.1032 85.0844 42.2428 85.416C49.3824 85.7475 56.486 84.2229 62.8602 80.9909C69.2343 77.7589 74.6612 72.93 78.6109 66.9756L80.9664 68.5368C76.7466 74.8984 70.9487 80.0575 64.1388 83.5104ZM44.6453 83.3387C37.6754 83.4247 30.8086 81.6521 24.7518 78.2036C18.6951 74.755 13.6674 69.7551 10.1864 63.7186C6.70538 57.6821 4.89694 50.8272 4.94725 43.8599C4.99756 36.8925 6.90482 30.0645 10.4726 24.0788C14.0404 18.0932 19.1398 13.1663 25.2457 9.8055C31.3517 6.44469 38.2434 4.77143 45.2113 4.95802C52.1792 5.14461 58.9714 7.18429 64.8885 10.8671C70.8304 14.5652 78.5011 21.8079 84.4786 34.5375C85.7577 37.2614 86.8539 40.2024 87.994 43.261C88.6775 45.095 89.3769 46.9712 90.1408 48.8683C92.2119 54.0111 94.858 59.601 99.1929 65.754L96.8821 67.3807C92.3848 60.9972 89.6432 55.1982 87.519 49.9233C86.6885 47.8611 85.9666 45.9209 85.2777 44.0693C84.177 41.1112 83.1605 38.3793 81.9202 35.7379C76.1679 23.488 68.8606 16.6672 63.3947 13.2653C57.904 9.84797 51.6013 7.95529 45.1356 7.78215C38.6699 7.60901 32.2749 9.16167 26.609 12.2803C20.9432 15.3989 16.2113 19.9706 12.9006 25.5249C9.58996 31.0791 7.82016 37.4151 7.77347 43.8803C7.72679 50.3455 9.40489 56.7063 12.635 62.3077C15.8651 67.9091 20.5305 72.5487 26.1507 75.7487C31.7709 78.9488 38.1428 80.5936 44.6104 80.5137C51.0779 80.4339 57.4073 78.6324 62.9467 75.2946L64.4058 77.7142C58.4361 81.3112 51.6151 83.2526 44.6453 83.3387ZM48.3339 78.1627C43.7203 78.7071 39.0441 78.3031 34.5923 76.9757C30.1405 75.6482 26.0071 73.4254 22.4459 70.4434C18.8846 67.4615 15.9705 63.7835 13.8826 59.6352C11.7947 55.4869 10.577 50.9558 10.3043 46.3201C10.0315 41.6844 10.7095 37.0419 12.2965 32.6775C13.8836 28.3132 16.3462 24.3191 19.5333 20.9405C22.7204 17.5618 26.5646 14.87 30.83 13.0301C35.0692 11.2015 39.6819 10.1111 44.377 10.2416C52.0479 10.4549 59.2537 12.5638 65.676 17.7854C72.0745 22.9877 77.5825 31.1878 82.0533 43.3841L79.3995 44.356C75.0381 32.4582 69.7708 24.7564 63.8926 19.9771C58.0381 15.2172 51.4656 13.2649 44.2984 13.0657C40.0909 12.9487 35.8879 13.9253 31.9498 15.624C28.038 17.3114 24.5125 19.7801 21.5896 22.8786C18.6668 25.9772 16.4083 29.6401 14.9528 33.6426C13.4973 37.6452 12.8756 41.9028 13.1257 46.1543C13.3758 50.4057 14.4926 54.5611 16.4074 58.3655C18.3222 62.1699 20.9947 65.543 24.2607 68.2777C27.5268 71.0124 31.3175 73.051 35.4002 74.2684C39.483 75.4858 43.7715 75.8563 48.0026 75.3571L48.3339 78.1627Z" fill="#3683FC"/>
</svg>
