<svg width="36" height="29" viewBox="0 0 36 29" fill="none" xmlns="http://www.w3.org/2000/svg">
<path d="M11.1949 28.9407C24.6283 28.9407 31.9746 17.8075 31.9746 8.15316C31.9746 7.83698 31.9682 7.52225 31.9539 7.20883C33.3834 6.17414 34.617 4.89303 35.597 3.42556C34.2884 4.00756 32.8802 4.39927 31.4029 4.57588C32.9108 3.67141 34.0684 2.24051 34.6145 0.534896C33.1809 1.38567 31.6125 1.98543 29.9769 2.30831C28.6442 0.888188 26.7469 0 24.6459 0C20.6128 0 17.3422 3.27188 17.3422 7.30498C17.3422 7.87837 17.4064 8.43591 17.5317 8.97088C11.4617 8.66534 6.07934 5.7581 2.47717 1.33749C1.82839 2.45246 1.48714 3.71964 1.48827 5.00963C1.48827 7.54439 2.77758 9.78201 4.73831 11.0911C3.57851 11.0557 2.44418 10.7423 1.43068 10.1773C1.4296 10.208 1.4296 10.2379 1.4296 10.2707C1.4296 13.8089 3.947 16.7631 7.28877 17.4325C6.66114 17.6035 6.0135 17.6899 5.36299 17.6895C4.89321 17.6895 4.43537 17.6433 3.99041 17.5579C4.9202 20.4608 7.61631 22.5732 10.8129 22.6322C8.3132 24.5922 5.16439 25.7596 1.74208 25.7596C1.1599 25.7601 0.578203 25.7263 0 25.6583C3.23224 27.7309 7.0702 28.9401 11.1953 28.9401" fill="#3683FC"/>
</svg>
